<?xml version="1.0" encoding="UTF-8"?>
<svg width="70px" height="68px" viewBox="0 0 70 68" version="1.1" xmlns="http://www.w3.org/2000/svg" xmlns:xlink="http://www.w3.org/1999/xlink">
    <!-- Generator: Sketch 42 (36781) - http://www.bohemiancoding.com/sketch -->
    <title>noun_Mobile Shopping_163248</title>
    <desc>Created with Sketch.</desc>
    <defs></defs>
    <g id="Page-1" stroke="none" stroke-width="1" fill="none" fill-rule="evenodd">
        <g id="noun_Mobile-Shopping_163248" transform="translate(-1.000000, -1.000000)">
            <g id="Group" transform="translate(0.000000, 0.637800)">
                <path d="M23.354137,1 C11.019093,1 1,11.021 1,23.3583 C1,35.6956 11.019093,45.7167 23.354137,45.7167 C35.689179,45.7167 45.708273,35.6956 45.708273,23.3583 C45.708273,11.021 35.689179,1 23.354137,1 Z" id="Shape-Copy" fill="#0C5DA4" fill-rule="nonzero"></path>
                <g id="Group-4" transform="translate(14.000000, 8.000000)" fill="#FFFFFF">
                    <path d="M7.927039,25.3468 C7.6582053,25.3736051 7.42425809,25.5422254 7.31377867,25.7888147 C7.20329925,26.035404 7.2331757,26.3222683 7.39209567,26.5407899 C7.55101564,26.7593114 7.81468633,26.8760866 8.083272,26.8469 L11.176695,26.8469 C11.4472627,26.8509119 11.6990119,26.7088371 11.8354669,26.4751217 C11.9719219,26.2414062 11.9719219,25.9522938 11.8354669,25.7185783 C11.6990119,25.4848629 11.4472627,25.3427881 11.176695,25.3468 L8.083272,25.3468 C8.03133635,25.34136 7.97897465,25.34136 7.927039,25.3468 L7.927039,25.3468 Z" id="Shape" fill-rule="nonzero"></path>
                    <path d="M1.569503,0.0411 C1.30156695,0.0578480925 1.06291721,0.21629222 0.943450811,0.456748014 C0.823984416,0.697203808 0.841851159,0.983140313 0.990320811,1.20684801 C1.13879046,1.43055572 1.39530695,1.55804809 1.663243,1.5413 L17.692796,1.5413 C17.9623904,1.54380237 18.2125833,1.40138392 18.3481079,1.16827389 C18.4836325,0.935163859 18.4836325,0.647236141 18.3481079,0.41412611 C18.2125833,0.181016079 17.9623904,0.0385976308 17.692796,0.0411 L1.663243,0.0411 C1.6320269,0.0391450131 1.6007191,0.0391450131 1.569503,0.0411 L1.569503,0.0411 Z" id="Shape" fill-rule="nonzero"></path>
                    <path d="M1.427726,0.0507 C1.100884,0.1347 0.854639,0.4634 0.865286,0.8008 L0.865286,29.178 C0.865325,29.5707 1.22256,29.928 1.615207,29.928 L17.488527,29.928 C18.176372,29.943 18.457174,29.7178 18.457174,29.178 L18.457174,0.8008 C18.467074,0.3502 17.991781,-0.0433 17.55102,0.0507 C17.212872,0.1227 16.949794,0.4551 16.957333,0.8008 L16.957333,28.4279 L2.365127,28.4279 L2.365127,0.8008 C2.379857,0.3371 1.876854,-0.0655 1.427726,0.0507 L1.427726,0.0507 Z" id="Shape" fill-rule="nonzero"></path>
                    <g id="Group-2" transform="translate(5.000000, 8.000000)">
                        <polygon id="Path" points="1.22222222 3.66666667 0 3.66666667 0 0 3.66666667 0 3.66666667 1.22222222 1.25925926 1.22222222 1.25925926 3.66666667"></polygon>
                        <polygon id="Path" points="8.7037037 1.22222222 6.2962963 1.22222222 6.2962963 0 9.96296296 0 9.96296296 3.66666667 8.74074074 3.66666667 8.74074074 1.22222222"></polygon>
                        <polygon id="Path" points="9.96296296 9.92592593 6.2962963 9.92592593 6.2962963 8.7037037 8.7037037 8.7037037 8.7037037 6.2962963 9.92592593 6.2962963 9.92592593 9.92592593"></polygon>
                        <polygon id="Path" points="3.66666667 9.96296296 0 9.96296296 0 6.2962963 1.22222222 6.2962963 1.22222222 8.7037037 3.62962963 8.7037037 3.62962963 9.96296296"></polygon>
                    </g>
                </g>
                <path d="M48.645864,23.6455 C36.31082,23.6455 26.291727,33.6665 26.291727,46.0038 C26.291727,58.3411 36.31082,68.3622 48.645864,68.3622 C60.980906,68.3622 71,58.3411 71,46.0038 C71,33.6665 60.980906,23.6455 48.645864,23.6455 Z" id="Shape" fill="#E45F5B" fill-rule="nonzero"></path>
                <g id="Group-3" transform="translate(32.000000, 35.000000)" fill-rule="nonzero" fill="#FFFFFF">
                    <path d="M1.087505,0.95523 C0.694848,0.97163 0.352471,1.34381 0.368831,1.73654 C0.385191,2.12927 0.757341,2.4717 1.149998,2.45534 L4.649628,2.45534 L8.555465,17.8941 C8.637225,18.2107 8.947135,18.4533 9.274139,18.4566 L25.522419,18.4566 C25.823543,18.4466 26.109521,18.2406 26.209846,17.9566 C27.617705,13.9322 28.905262,9.9563 30.271916,5.95561 C30.432412,5.50155 30.034692,4.9481 29.553242,4.95553 L9.274139,4.95553 C8.877945,4.94953 8.513533,5.30928 8.513533,5.70559 C8.513533,6.1019 8.877945,6.46126 9.274139,6.45565 L28.522101,6.45565 L27.678441,8.95584 L11.961354,8.95584 C11.566523,8.96904 11.220092,9.3426 11.236538,9.7374 C11.252988,10.1322 11.629285,10.4756 12.023848,10.456 L27.147247,10.456 L26.303586,12.9562 C22.339212,12.9561 18.353459,12.9562 14.398596,12.9562 C14.005939,12.9892 13.678447,13.376 13.711169,13.7687 C13.743889,14.1614 14.130926,14.489 14.523583,14.4563 L25.803639,14.4563 L24.959978,16.9565 L9.836579,16.9565 L5.930742,1.54902 C5.860932,1.22102 5.5473,0.96189 5.212069,0.95523 L1.087505,0.95523 L1.087505,0.95523 Z" id="Shape"></path>
                    <path d="M10.930213,20.9696 C10.6614036,20.9908055 10.4244835,21.1542412 10.3091597,21.3980241 C10.193836,21.641807 10.2177373,21.9286718 10.3718137,22.1500003 C10.5258901,22.3713288 10.7865892,22.4932882 11.0552,22.4697 L15.11727,22.4697 C15.3878387,22.4737134 15.6395894,22.3316389 15.7760453,22.0979229 C15.9125013,21.8642068 15.9125013,21.5750932 15.7760453,21.3413771 C15.6395894,21.1076611 15.3878387,20.9655866 15.11727,20.9696 L11.0552,20.9696 C11.0136102,20.9661218 10.9718028,20.9661218 10.930213,20.9696 L10.930213,20.9696 Z" id="Shape"></path>
                    <path d="M19.023107,20.9696 C18.6104288,21.0144449 18.3116176,21.3844873 18.3546255,21.7974354 C18.3976333,22.2103834 18.7662807,22.5108857 19.17934,22.4697 L23.24141,22.4697 C23.5119787,22.4737134 23.7637294,22.3316389 23.9001853,22.0979229 C24.0366413,21.8642068 24.0366413,21.5750932 23.9001853,21.3413771 C23.7637294,21.1076611 23.5119787,20.9655866 23.24141,20.9696 L19.17934,20.9696 C19.1274043,20.96416 19.0750427,20.96416 19.023107,20.9696 L19.023107,20.9696 Z" id="Shape"></path>
                </g>
            </g>
        </g>
    </g>
</svg>